# xmcd
#
# Track frame offsets: 
#        150
#        14909
#        32151
#        44793
#        58880
#        73717
#        95745
#        108449
#
# Disc length: 1659 seconds
#
# Revision: 0
# Processed by: cddbd v1.5.2PL0 Copyright (c) Steve Scherf et al.
# Submitted via: ExactAudioCopyFreeDBPlugin 1.0
#
DISCID=7c067908
DTITLE=Steve Itterly - Aspen Blues
DYEAR=1900
DGENRE=
TTITLE0=Aspen Blues
TTITLE1=I Don't Know
TTITLE2=My Work is Done
TTITLE3=I'd Rather Sing the Blues
TTITLE4=Coraline
TTITLE5=Song of a Mountain Man
TTITLE6=I'm Gonna Find My Way Home
TTITLE7=Jacob
EXTD=
EXTT0=
EXTT1=
EXTT2=
EXTT3=
EXTT4=
EXTT5=
EXTT6=
EXTT7=
PLAYORDER=
